<svg width="512" height="512" viewBox="0 0 512 512" fill="none" xmlns="http://www.w3.org/2000/svg">
  <rect width="512" height="512" rx="100" fill="#000000"/>
  <circle cx="256" cy="256" r="200" fill="url(#paint0_radial)" fill-opacity="0.3"/>
  <path d="M160 180C160 168.954 168.954 160 180 160H332C343.046 160 352 168.954 352 180V300C352 311.046 343.046 320 332 320H240L180 370V320H180C168.954 320 160 311.046 160 300V180Z" fill="#2E5BFF"/>
  <path d="M180 165H332C338.63 165 344 170.37 344 177V185H168V177C168 170.37 173.37 165 180 165Z" fill="white" fill-opacity="0.2"/>
  <defs>
    <radialGradient id="paint0_radial" cx="0" cy="0" r="1" gradientUnits="userSpaceOnUse" gradientTransform="translate(256 256) rotate(90) scale(200)">
      <stop stop-color="#2E5BFF"/>
      <stop offset="1" stop-color="#2E5BFF" stop-opacity="0"/>
    </radialGradient>
  </defs>
</svg>
